<?xml version="1.0" standalone="no"?>
<!DOCTYPE svg PUBLIC "-//W3C//DTD SVG 20010904//EN"
 "http://www.w3.org/TR/2001/REC-SVG-20010904/DTD/svg10.dtd">
<svg version="1.0" xmlns="http://www.w3.org/2000/svg"
 width="512.000000pt" height="512.000000pt" viewBox="0 0 512.000000 512.000000"
 preserveAspectRatio="xMidYMid meet">
<metadata>
Created by potrace 1.14, written by Peter Selinger 2001-2017
</metadata>
<g transform="translate(0.000000,512.000000) scale(0.100000,-0.100000)"
fill="#000000" stroke="none">
<path d="M1410 5033 c-8 -3 -23 -12 -33 -21 -9 -8 -27 -20 -39 -26 -29 -15
-91 -108 -113 -171 -10 -27 -27 -63 -38 -78 -10 -16 -27 -55 -37 -87 -10 -32
-27 -71 -38 -87 -10 -15 -27 -53 -37 -83 -10 -30 -24 -64 -31 -76 -8 -11 -23
-46 -34 -77 -11 -31 -28 -81 -39 -109 -20 -57 -87 -184 -102 -193 -4 -3 -18
-36 -29 -72 -11 -37 -27 -74 -35 -83 -8 -9 -24 -42 -35 -74 -11 -32 -28 -72
-39 -90 -10 -17 -25 -51 -31 -76 -7 -24 -22 -65 -35 -90 -32 -63 -85 -199 -85
-216 0 -9 -13 -35 -30 -59 -16 -24 -30 -47 -30 -51 0 -4 -11 -24 -25 -44 -13
-19 -34 -62 -45 -94 -11 -33 -26 -67 -34 -75 -7 -9 -21 -43 -31 -76 -9 -33
-27 -78 -40 -100 -13 -22 -28 -56 -33 -75 -6 -19 -33 -85 -61 -147 -28 -62
-51 -123 -51 -136 0 -13 -14 -41 -30 -62 -17 -21 -30 -43 -30 -50 0 -7 -12
-30 -27 -51 -23 -33 -27 -49 -28 -109 0 -58 4 -75 23 -99 12 -16 22 -34 22
-40 0 -6 17 -29 39 -51 78 -81 312 -311 356 -350 60 -53 133 -119 170 -154 17
-16 40 -32 53 -36 12 -3 130 -113 262 -243 231 -229 346 -339 439 -419 25 -21
61 -55 82 -75 20 -20 54 -45 75 -56 22 -12 105 -87 185 -169 221 -224 379
-373 408 -386 14 -6 33 -16 41 -23 21 -17 130 -44 178 -44 64 0 141 20 180 46
19 13 41 24 48 24 7 0 29 13 47 30 19 16 52 38 73 47 22 10 55 30 75 45 19 15
51 34 70 42 18 8 45 26 58 40 13 14 48 32 77 41 29 8 56 20 60 26 4 6 32 22
63 36 31 14 65 33 76 43 11 10 46 30 78 45 31 15 57 31 57 35 0 4 26 21 58 38
31 17 67 42 80 56 12 13 44 29 72 36 28 7 53 16 56 21 3 5 36 25 74 44 38 19
72 40 76 46 3 6 30 22 58 34 29 13 58 30 66 40 7 9 36 28 64 42 27 14 58 36
68 48 10 14 38 28 67 35 27 6 64 22 82 36 18 13 38 24 45 24 7 0 36 16 65 36
30 20 75 47 101 60 26 13 49 28 53 34 4 6 29 22 58 36 28 15 59 37 70 50 11
14 41 30 75 40 31 9 66 24 77 34 11 10 43 28 72 40 28 12 59 30 68 41 10 10
33 23 52 30 26 8 39 21 50 48 8 20 21 43 29 52 24 26 47 176 40 259 -7 89 -32
191 -58 243 -14 28 -20 64 -22 130 -2 90 -24 180 -64 267 -10 23 -16 66 -16
125 -1 89 -22 181 -64 279 -11 27 -16 60 -14 105 3 50 -3 85 -22 145 -14 43
-26 85 -26 93 0 7 -9 31 -19 51 -15 30 -18 51 -14 98 2 32 0 77 -6 99 -39 150
-50 183 -64 211 -12 23 -14 40 -7 69 12 51 -4 133 -42 219 -19 44 -28 78 -25
95 12 60 -22 226 -60 295 -11 21 -17 58 -18 123 -2 89 -3 94 -40 147 -20 30
-61 71 -90 91 -51 35 -57 36 -162 42 -62 3 -127 0 -153 -6 -38 -9 -51 -7 -85
9 -101 48 -197 62 -448 66 -156 2 -244 7 -252 14 -21 17 -157 48 -269 61 -55
6 -164 9 -245 7 -107 -4 -153 -2 -172 8 -33 17 -184 51 -282 64 -100 13 -308
13 -342 0 -20 -8 -34 -6 -63 9 -64 33 -277 71 -388 70 -55 0 -106 -3 -114 -6z
m356 -252 c56 -11 164 -25 240 -31 303 -23 392 -32 454 -45 101 -21 210 -33
399 -45 96 -6 211 -18 255 -26 129 -23 282 -42 401 -49 162 -9 287 -23 405
-45 58 -11 158 -23 223 -28 79 -6 123 -14 132 -23 8 -8 19 -45 25 -84 6 -38
21 -104 34 -145 13 -41 29 -122 36 -180 6 -58 22 -136 35 -175 14 -38 31 -126
39 -193 9 -68 27 -159 40 -202 14 -43 32 -132 41 -199 8 -66 26 -153 40 -194
13 -40 29 -120 35 -177 6 -57 22 -137 36 -178 13 -40 31 -131 40 -200 9 -70
27 -160 40 -200 13 -40 31 -127 39 -193 9 -66 24 -141 34 -167 10 -26 23 -78
29 -117 31 -202 24 -238 -55 -270 -29 -11 -62 -30 -75 -42 -13 -11 -45 -30
-73 -42 -27 -12 -59 -31 -70 -41 -11 -10 -38 -26 -60 -35 -22 -10 -49 -25 -60
-35 -11 -11 -43 -29 -70 -41 -28 -12 -61 -31 -75 -44 -14 -12 -41 -28 -60 -35
-19 -7 -51 -25 -71 -41 -20 -15 -53 -35 -75 -44 -21 -9 -48 -24 -59 -35 -11
-10 -45 -30 -75 -45 -79 -37 -185 -97 -206 -116 -11 -9 -41 -26 -69 -38 -27
-12 -59 -30 -70 -41 -11 -10 -38 -25 -60 -35 -22 -9 -49 -25 -60 -35 -11 -10
-41 -28 -66 -39 -25 -11 -57 -30 -72 -41 -14 -11 -46 -29 -70 -40 -24 -11 -51
-28 -61 -38 -9 -11 -38 -28 -64 -37 -26 -10 -58 -28 -72 -41 -14 -12 -45 -30
-70 -40 -25 -9 -54 -25 -66 -35 -11 -11 -48 -32 -81 -48 -34 -17 -64 -35 -68
-41 -4 -7 -28 -21 -54 -32 -25 -10 -55 -28 -66 -38 -11 -10 -42 -28 -70 -40
-27 -12 -61 -32 -75 -45 -14 -13 -44 -29 -68 -36 -70 -20 -101 -4 -212 109 -8
8 -23 22 -33 31 -9 9 -37 34 -60 56 -149 139 -198 185 -342 315 -88 79 -174
158 -192 175 -17 16 -51 48 -76 70 -53 47 -64 58 -95 87 -135 129 -193 185
-268 253 -49 44 -102 94 -118 111 -17 17 -101 93 -186 169 -85 76 -169 152
-187 169 -17 17 -68 65 -113 106 -139 128 -260 252 -260 267 0 7 11 30 25 51
14 21 32 62 41 92 9 30 25 67 36 82 10 15 28 55 39 90 12 34 29 73 40 86 10
14 28 53 38 87 11 34 31 78 44 98 14 21 28 55 32 77 4 22 18 57 32 77 15 21
35 64 45 96 10 33 27 70 38 85 11 14 27 50 36 81 9 31 27 72 40 91 13 20 33
63 44 98 11 34 31 78 44 97 14 19 27 53 31 75 4 22 18 57 32 77 15 21 35 64
45 96 10 33 27 70 38 85 11 14 28 50 36 80 9 30 29 75 45 100 15 24 31 58 34
76 4 17 20 54 35 82 16 28 35 74 44 103 8 28 25 65 37 82 12 17 30 57 40 88 9
32 29 74 42 95 14 20 28 54 32 75 3 21 22 63 41 92 19 29 34 58 34 64 0 6 7
21 17 34 15 23 20 24 107 18 50 -4 137 -15 192 -26z"/>
<path d="M1880 3872 c-31 -15 -37 -24 -53 -87 -9 -38 -21 -126 -27 -195 -11
-148 -39 -247 -99 -345 -22 -38 -41 -74 -41 -80 0 -5 -10 -26 -23 -45 -31 -47
-98 -212 -136 -336 -44 -143 -55 -241 -48 -429 6 -155 7 -164 46 -270 58 -161
118 -295 144 -323 12 -13 49 -45 82 -70 33 -26 79 -68 103 -94 30 -33 60 -53
99 -68 31 -12 84 -36 117 -54 34 -19 81 -38 106 -44 25 -6 91 -32 145 -57 127
-59 189 -75 291 -75 151 0 229 16 339 69 55 27 132 58 170 70 39 11 115 40
170 64 86 37 104 50 132 89 20 28 35 63 39 91 6 43 4 49 -40 106 -53 68 -72
77 -161 75 -64 -2 -112 -19 -156 -55 -106 -86 -664 -102 -876 -25 -62 22 -143
77 -181 122 -18 21 -52 62 -76 90 -100 119 -121 207 -113 484 6 223 20 288 81
380 24 36 51 81 61 100 24 49 100 125 165 167 30 19 69 49 87 65 24 24 53 36
130 54 209 51 379 51 538 0 81 -26 122 -55 266 -191 44 -41 97 -148 111 -224
12 -67 5 -324 -11 -364 -18 -45 -73 -108 -115 -129 -36 -18 -40 -18 -55 -3
-24 23 -19 154 11 295 36 169 33 186 -61 280 -42 42 -103 95 -136 118 -33 23
-73 52 -88 65 -27 21 -39 22 -215 26 -213 3 -254 -5 -353 -74 -105 -74 -162
-142 -228 -271 -35 -68 -45 -103 -62 -210 -18 -111 -20 -138 -9 -204 16 -108
37 -175 64 -207 13 -15 35 -51 49 -80 25 -48 33 -54 120 -97 162 -80 274 -85
436 -22 129 50 159 54 223 26 28 -12 64 -32 80 -43 24 -18 46 -22 147 -25
l118 -4 30 29 c16 16 50 37 74 46 32 12 67 41 126 106 46 49 91 104 102 122
46 81 121 367 121 462 0 66 -42 276 -72 357 -42 117 -89 359 -112 580 -16 146
-45 234 -88 264 -30 21 -103 20 -154 -3 -23 -10 -68 -45 -100 -77 -129 -130
-196 -164 -288 -143 -36 8 -108 9 -232 5 -230 -9 -272 -8 -298 6 -30 16 -187
148 -209 175 -43 53 -139 70 -207 35z m740 -1101 c40 -11 90 -96 90 -152 0
-54 -31 -179 -54 -213 -9 -14 -48 -51 -87 -82 -107 -87 -178 -89 -237 -7 -28
39 -44 106 -37 151 7 36 42 137 72 199 13 29 60 67 123 100 26 14 88 16 130 4z"/>
</g>
</svg>
